<svg width="50" height="50" viewBox="0 0 50 50" fill="none" xmlns="http://www.w3.org/2000/svg">
<path d="M47.4586 14.1972C42.651 14.0328 33.5899 19.4145 30.6207 21.0382C28.0387 22.9886 27.2819 21.6257 28.6196 20.4825C30.4694 18.9031 32.0685 16.8465 39.6424 13.6963C43.4408 12.1162 44.6852 11.3783 43.4138 10.2622C42.1418 9.14481 38.8455 10.3895 39.6816 9.51307C40.5163 8.63455 41.6827 5.34969 40.3936 4.53982C39.1061 3.73201 35.7937 5.66912 35.0647 6.61424C34.3381 7.55946 34.7369 4.49568 33.1099 3.79266C31.4838 3.09041 31.0349 4.32596 30.4115 7.89998C29.1703 15.0268 27.3567 16.9494 26.1509 18.9335C25.277 20.3678 23.5312 20.1571 24.9314 17.4656C25.8509 14.5556 29.1356 5.54578 27.5094 1.67146C25.884 -2.20276 21.7878 1.56648 22.897 3.84822C19.7164 1.3117 18.8733 5.37283 21.6743 9.80946C22.34 10.8655 23.7286 15.1596 21.1096 19.8015C19.7604 19.1236 17.7424 18.581 15.6649 19.2299C13.4185 19.9407 11.6643 20.8086 10.2827 21.7524C9.5614 22.2462 8.93888 22.7616 8.39729 23.2936C5.66958 25.9395 5.03701 28.8707 4.1869 30.6428C3.96558 31.0981 3.72714 31.6862 3.48494 32.3642C3.23657 33.038 2.97816 33.7978 2.71883 34.6088C1.67434 37.8587 0.627564 41.8037 0.226476 43.5217C-0.575127 46.934 0.911544 48.2864 2.18272 49.0843C3.45937 49.8863 5.41345 50.6942 8.97746 49.0163C11.6419 47.7557 19.4295 43.8425 22.1441 41.9172C22.637 41.5654 23.2472 41.2018 23.9098 40.7879C24.5733 40.374 25.2852 39.9153 26.002 39.3775C28.5376 37.4727 31.1189 34.5508 31.4328 29.1308C31.5276 27.2392 30.3242 25.7587 29.1624 24.8585C33.5526 21.3287 38.7565 21.1729 40.1343 21.4007C45.92 22.3558 50.1968 20.4509 46.4136 18.6147C49.2914 18.8357 52.2652 14.3621 47.4586 14.1972ZM23.6679 37.2422C23.5006 37.3683 23.3332 37.4784 23.1657 37.596L18.73 34.8101C18.1083 34.4206 17.262 34.5012 16.8417 34.9916C16.4259 35.4761 16.5893 36.1914 17.2104 36.5816L21.0304 38.9794C20.6239 39.2335 20.2305 39.481 19.8732 39.7364C17.4031 41.4888 9.88716 45.2806 7.17405 46.5643C5.0789 47.5496 4.48572 47.1768 4.0521 46.9048C3.62088 46.6335 3.03158 46.264 3.50286 44.2556C3.86628 42.6986 4.73637 39.4077 5.6536 36.4502L7.27815 37.4699C7.89987 37.8608 8.74542 37.7788 9.16043 37.2943C9.58092 36.8039 9.41816 36.0899 8.79632 35.6997L6.39026 34.1876C6.49058 33.8979 6.58932 33.6114 6.68805 33.3461C6.9048 32.7416 7.11379 32.2261 7.29744 31.8472C7.53279 31.3555 7.7387 30.8314 7.95557 30.2776C8.58425 28.6719 9.29626 26.8515 11.0088 25.1895C11.0621 25.1381 11.1237 25.0899 11.1777 25.0391L17.1277 28.7747C17.7494 29.1642 18.588 29.079 19.0077 28.5893C19.4242 28.1041 19.2677 27.3939 18.6459 27.0032L13.161 23.5593C14.2712 22.8934 15.5663 22.3144 17.0413 21.8485C18.3512 21.4394 19.6217 22.1753 19.8632 22.327L26.7141 26.6283C27.0544 26.8422 28.159 27.6289 28.1019 28.7826C27.8266 33.5369 25.588 35.8008 23.6679 37.2422Z" fill="white"/>
</svg>
