<svg width="50" height="50" viewBox="0 0 50 50" fill="none" xmlns="http://www.w3.org/2000/svg">
<mask id="mask0_149_2" style="mask-type:luminance" maskUnits="userSpaceOnUse" x="0" y="2" width="50" height="46">
<path d="M49.971 2.07202H0.137939V47.8535H49.971V2.07202Z" fill="white"/>
</mask>
<g mask="url(#mask0_149_2)">
<path d="M0.156296 31.7172C0.0774947 27.2051 1.34338 24.0207 3.94584 21.3507C6.42414 18.8084 9.38636 16.9432 12.5174 15.3712C13.822 14.7238 14.8872 13.6784 15.559 12.386C15.9214 11.7236 16.1377 10.9799 16.4061 10.2679C16.5526 9.87938 16.6729 9.48071 16.8001 9.08509C18.054 5.18253 20.8442 3.06095 24.763 2.34607C29.5057 1.48088 33.9067 3.8555 36.1678 8.40833C36.2515 8.56021 36.3246 8.71768 36.3864 8.87966C37.3049 11.6458 39.3867 13.1019 42.041 13.9161C42.5373 14.0684 43.0305 14.2317 43.5302 14.3713C46.8759 15.306 48.7521 17.5733 49.5138 20.8923C50.1185 23.5258 49.7222 25.8959 47.9144 27.9931C47.1246 28.9094 46.4543 29.9285 45.7385 30.9073C44.6898 32.3414 44.3361 33.9614 44.4219 35.7158C44.4725 36.7525 44.5546 37.8074 44.4262 38.8293C43.9864 42.3284 41.0882 46.7105 35.8336 47.5278C32.1947 48.0951 28.6696 47.8519 25.1965 46.5871C23.8261 46.1108 22.4263 45.7235 21.0061 45.4275C18.8575 44.9472 16.7382 45.4074 14.6089 45.7192C13.3501 45.9031 12.0303 46.0935 10.7912 45.9139C6.37145 45.2726 3.37825 42.6772 1.66283 38.6293C0.627282 36.1874 0.144344 33.5957 0.156296 31.7172ZM33.0107 44.763C33.5469 44.7226 34.2027 44.6547 34.8601 44.6235C39.5552 44.4006 42.5339 40.0516 41.7058 36.0392C41.1848 33.5142 41.8283 31.1535 43.4481 29.1051C44.3725 27.9368 45.2969 26.7684 46.2435 25.618C46.6635 25.1296 46.9611 24.5484 47.112 23.9222C47.2629 23.2961 47.2626 22.6432 47.1114 22.0172C46.9743 21.3762 46.7928 20.7428 46.5972 20.1166C46.0941 18.5076 44.9891 17.4795 43.4203 16.9393C42.5379 16.6354 41.629 16.4063 40.749 16.0947C37.6691 15.0043 35.2391 13.2089 34.1962 9.94021C34.1311 9.74284 34.0496 9.55111 33.953 9.36688C31.7277 5.00935 27.3898 2.70724 22.2242 5.5078C21.4295 5.92805 20.7456 6.53068 20.2285 7.2662C19.5238 8.33129 18.9682 9.4879 18.5771 10.7037C17.8403 13.0724 16.3341 15.1274 14.2971 16.5432C12.3551 17.9359 10.381 19.2861 8.47599 20.728C6.09414 22.531 4.00985 24.5984 3.30386 27.656C2.38196 31.4418 2.98202 35.4383 4.9751 38.7864C6.65645 41.655 9.32253 43.2087 12.8445 42.709C13.5302 42.6118 14.2182 42.5232 14.8992 42.3988C16.9918 42.0167 19.1056 41.7534 21.1961 42.2402C23.1096 42.6858 24.9891 43.2889 26.8647 43.8809C28.8315 44.5047 30.8204 44.892 33.0107 44.7639V44.763Z" fill="white"/>
<path d="M26.2729 31.7919C24 31.7594 21.8128 30.9179 20.1045 29.4183C17.2529 26.9751 16.8735 22.7792 19.1998 19.6658C20.1568 18.3834 21.4259 17.3674 22.8867 16.7143C23.9198 16.2417 24.8847 15.6609 26.0519 15.5053C29.1715 15.0913 32.8913 16.9805 34.5212 19.866C36.0385 22.5525 35.6573 26.352 33.5252 28.8138C31.7129 30.9066 29.3078 31.7426 26.2729 31.7919ZM32.6752 23.4602C32.686 20.0569 29.5526 18.0043 26.6947 17.8552C23.8622 17.7071 21.7679 19.2784 20.6051 21.9026C19.6125 24.1435 20.3744 26.5701 22.4345 27.9034C24.4524 29.2095 26.6404 29.4335 28.8985 28.7231C31.2406 27.9863 32.6885 25.9012 32.6761 23.4602H32.6752Z" fill="white"/>
</g>
</svg>
