<svg width="50" height="51" viewBox="0 0 50 51" fill="none" xmlns="http://www.w3.org/2000/svg">
<path d="M49.9957 26.621C49.9957 20.8165 47.3437 15.3685 42.5283 11.2811C37.7567 7.23057 31.422 5 24.6912 5C17.5009 5 11.4701 6.37663 7.25057 8.98146C4.92595 10.4166 3.12651 12.2274 1.90219 14.364C0.807716 16.2741 0.171282 18.4528 0.00038292 20.854C-0.0079401 21.0645 0.122176 28.7392 0.122176 28.7392C0.122176 32.0717 0.8743 34.0204 2.8549 35.1729C4.59719 36.1864 6.9637 36.3434 9.70392 36.5248C13.52 36.7776 18.2691 37.0925 23.231 39.8432C28.8843 42.978 33.8249 44.8492 37.9151 45.4044C38.7746 45.5212 39.5924 45.5795 40.3681 45.5795C43.6427 45.5795 46.0922 44.4783 47.8863 42.4802C50.1915 39.9126 49.9957 33.6076 49.9957 26.621ZM8.23435 10.5748C12.1578 8.15276 17.8485 6.87268 24.6915 6.87268C37.6118 6.87268 48.123 15.7317 48.123 26.6213C48.123 29.9605 47.3068 32.6824 45.7626 34.4915C44.2051 36.3165 41.939 37.2417 39.0262 37.2417H39.0251C35.2401 37.2414 30.446 35.6215 25.1606 32.5575C20.1515 29.6536 15.0343 29.1437 10.9224 28.7339C4.61356 28.105 1.82423 27.5992 1.82423 22.1887C1.82451 17.1078 3.98101 13.2004 8.23435 10.5748ZM46.4481 41.2798C44.7599 43.302 41.9739 44.0649 38.1667 43.5489C34.3079 43.0248 29.5885 41.2271 24.1388 38.2055C18.8107 35.2517 13.8296 34.9215 9.82738 34.6563C4.49898 34.3037 1.82423 34.1264 1.82423 28.5991V27.9055C3.7954 29.9053 7.11102 30.236 10.7365 30.5975C14.8736 31.0097 19.5625 31.4772 24.2212 34.1775C29.8712 37.4531 34.8517 39.1141 39.0248 39.1144H39.0254C42.4625 39.1144 45.2848 37.9361 47.1866 35.7072C47.5068 35.3321 47.7978 34.9293 48.0636 34.5032C47.9532 38.4952 47.597 39.9043 46.4481 41.2798Z" fill="white"/>
<path d="M16.0217 22.3512C19.241 22.3512 21.8603 20.2294 21.8603 17.6212C21.8603 15.0136 19.241 12.8921 16.0217 12.8921C12.8031 12.8921 10.1844 15.0136 10.1844 17.6212C10.1842 20.2294 12.8029 22.3512 16.0217 22.3512ZM16.0217 14.7648C18.2084 14.7648 19.9876 16.0462 19.9876 17.6212C19.9876 19.1968 18.2087 20.4785 16.0217 20.4785C13.8727 20.4785 12.0571 19.1701 12.0571 17.6212C12.0569 16.0729 13.8724 14.7648 16.0217 14.7648Z" fill="white"/>
</svg>
