<svg width="50" height="50" viewBox="0 0 50 50" fill="none" xmlns="http://www.w3.org/2000/svg">
<path d="M31.6895 18.3104L7.21948 42.7806M18.5574 31.4427L18.9789 31.1025C19.3878 30.7477 19.7583 30.3502 20.0837 29.9162C22.6126 26.5443 21.9293 21.7606 18.5574 19.2316L18.1358 19.5718C17.7269 19.9265 17.3564 20.3241 17.031 20.7579C14.502 24.13 15.1854 28.9137 18.5574 31.4427ZM18.5574 31.4427L18.8976 31.8641C19.2523 32.2731 19.6499 32.6435 20.0838 32.9691C23.4557 35.4979 28.2393 34.8145 30.7682 31.4427L30.428 31.021C30.0734 30.612 29.6757 30.2416 29.2418 29.9162C25.8699 27.3872 21.0864 28.0706 18.5574 31.4427ZM24.6628 25.337L25.0843 24.9968C25.4932 24.6422 25.8636 24.2447 26.1891 23.8108C28.7182 20.4388 28.0347 15.6551 24.6628 13.1261L24.2414 13.4663C23.8324 13.821 23.462 14.2185 23.1366 14.6524C20.6075 18.0244 21.2907 22.8081 24.6628 25.337ZM24.6628 25.337L25.003 25.7587C25.3578 26.1677 25.7553 26.5381 26.1893 26.8635C29.5611 29.3925 34.3447 28.7091 36.8737 25.337L36.5334 24.9156C36.1789 24.5066 35.7811 24.1362 35.3474 23.8108C31.9753 21.2818 27.1918 21.9652 24.6628 25.337ZM30.7682 19.2316L31.1899 18.8914C31.5986 18.5367 31.9693 18.1392 32.2947 17.7053C34.8236 14.3333 34.1403 9.5496 30.7682 7.0206L30.3468 7.36079C29.9378 7.7155 29.5674 8.11304 29.242 8.54694C26.713 11.9189 27.3964 16.7026 30.7682 19.2316ZM30.7682 19.2316L31.1084 19.6532C31.4632 20.0621 31.8607 20.4326 32.2947 20.758C35.6666 23.287 40.4503 22.6035 42.9791 19.2316L42.6391 18.8101C42.2843 18.4011 41.8868 18.0306 41.4528 17.7052C38.0807 15.1763 33.2972 15.8597 30.7682 19.2316ZM12.3074 37.6927L12.7289 37.3525C13.1378 36.9977 13.5083 36.6002 13.8337 36.1662C16.3627 32.7943 15.6793 28.0106 12.3074 25.4816L11.8858 25.8218C11.4769 26.1764 11.1064 26.5741 10.781 27.0079C8.25202 30.38 8.93538 35.1637 12.3074 37.6927ZM12.3074 37.6927L12.6476 38.1141C13.0023 38.5231 13.3999 38.8935 13.8338 39.2191C17.2057 41.7479 21.9893 41.0645 24.5182 37.6927L24.178 37.271C23.8234 36.862 23.4257 36.4916 22.9918 36.1662C19.6199 33.6372 14.8363 34.3206 12.3074 37.6927ZM36.7276 15.4324C36.1905 15.5091 35.6476 15.5283 35.1076 15.4899L34.5689 15.4323C33.9728 11.2597 36.8722 7.39398 41.0447 6.79789C41.7605 6.69562 42.4874 6.69562 43.2032 6.79789C43.7995 10.9706 40.9001 14.8363 36.7276 15.4324Z" stroke="white" stroke-width="2"/>
</svg>
